<?xml version="1.0" standalone="no"?>
<!DOCTYPE svg PUBLIC "-//W3C//DTD SVG 20010904//EN"
 "http://www.w3.org/TR/2001/REC-SVG-20010904/DTD/svg10.dtd">
<svg version="1.0" xmlns="http://www.w3.org/2000/svg"
 width="500.000000pt" height="500.000000pt" viewBox="0 0 500.000000 500.000000"
 preserveAspectRatio="xMidYMid meet">
<metadata>
Created by potrace 1.11, written by Peter Selinger 2001-2013
</metadata>
<g transform="translate(0.000000,500.000000) scale(0.100000,-0.100000)"
fill="#000000" stroke="none">
<path d="M1070 4960 c0 -8 10 -55 21 -105 11 -49 22 -97 24 -105 21 -97 104
-342 161 -479 76 -181 259 -511 283 -511 11 0 86 229 115 350 27 111 55 271
61 355 6 66 6 295 1 320 -3 11 -5 32 -5 48 -1 15 -5 27 -10 27 -10 0 -76 -193
-86 -251 -3 -19 -8 -41 -10 -49 -2 -8 -7 -33 -10 -55 -3 -23 -7 -50 -9 -60 -4
-20 -13 -96 -21 -165 -13 -114 -24 -309 -25 -450 l-1 -65 -48 140 c-158 458
-358 949 -430 1055 -10 13 -11 13 -11 0z"/>
<path d="M1879 4374 c0 -5 -2 -18 -5 -29 -2 -11 -6 -40 -10 -65 -3 -25 -8 -53
-10 -64 -23 -123 -23 -714 1 -806 2 -8 6 -44 10 -80 3 -36 7 -75 9 -85 2 -11
7 -42 10 -70 10 -73 29 -187 52 -305 17 -87 -164 326 -287 655 -78 207 -88
232 -88 219 -2 -43 215 -639 313 -859 32 -72 37 -77 -105 110 -253 333 -478
587 -836 942 -128 128 -242 237 -253 243 -34 18 121 -233 269 -435 36 -49 68
-92 71 -95 3 -3 35 -41 70 -85 203 -251 528 -569 803 -784 30 -24 59 -72 151
-255 l114 -227 -42 34 c-169 135 -691 471 -951 612 -38 21 -95 51 -125 68 -76
42 -297 152 -345 171 -36 15 -28 5 80 -103 114 -114 250 -229 397 -337 238
-173 617 -358 920 -449 l87 -26 32 -57 c57 -101 182 -306 211 -346 15 -22 26
-41 24 -43 -2 -2 -28 10 -57 28 -64 38 -279 146 -364 184 -283 124 -821 297
-1065 341 -14 3 -30 7 -37 9 -69 24 119 -126 279 -224 318 -192 665 -318 1013
-367 28 -3 58 -8 67 -10 10 -1 59 -6 110 -10 52 -3 96 -11 100 -18 19 -32 234
-330 276 -382 l50 -61 -82 30 c-172 63 -626 202 -726 222 -8 2 -62 15 -120 30
-58 15 -112 28 -120 30 -8 2 -53 12 -100 23 -47 12 -98 23 -115 27 -16 3 -41
8 -55 11 -118 24 -189 39 -270 54 l-95 18 40 -35 c71 -62 247 -173 370 -233
198 -96 462 -178 665 -206 25 -3 47 -8 50 -9 3 -2 39 -6 80 -10 41 -3 95 -8
120 -10 45 -4 358 -8 376 -4 23 4 34 -5 76 -58 25 -32 56 -70 69 -84 13 -14
39 -43 58 -65 19 -21 50 -56 70 -77 l36 -39 -38 6 c-21 3 -71 13 -110 21 -101
20 -267 49 -397 69 -19 3 -46 8 -60 11 -61 12 -78 15 -120 20 -43 6 -167 25
-295 45 -33 6 -73 12 -90 14 -16 3 -48 7 -70 10 -22 3 -60 8 -85 11 -25 3 -56
8 -70 10 -14 2 -50 7 -80 11 -30 3 -57 7 -60 9 -3 2 -43 6 -90 9 -47 3 -78 2
-70 -2 8 -4 40 -23 70 -43 57 -37 184 -104 255 -134 111 -46 306 -106 395
-120 19 -3 60 -10 90 -15 222 -38 541 -31 782 16 l77 15 74 -73 c152 -150 287
-269 453 -398 185 -144 482 -340 609 -402 l40 -19 -26 23 c-14 13 -38 33 -55
44 -132 97 -359 275 -439 345 -131 114 -349 316 -438 407 l-108 109 25 119
c23 111 32 165 42 239 2 17 6 46 9 65 5 34 7 56 20 200 11 118 15 242 14 455
0 210 -1 243 -14 410 -4 50 -8 96 -8 103 0 7 -4 9 -8 5 -7 -8 -56 -245 -65
-313 -2 -19 -6 -42 -9 -50 -2 -8 -7 -40 -10 -70 -3 -30 -8 -62 -10 -70 -2 -8
-7 -46 -10 -84 -3 -37 -8 -82 -10 -99 -19 -149 -26 -590 -12 -772 l8 -100 -48
50 c-67 71 -224 243 -265 291 -15 17 -16 26 -8 55 35 116 102 514 115 679 3
41 8 84 10 95 2 11 7 63 10 115 4 52 8 115 11 140 10 102 15 595 6 585 -28
-28 -133 -450 -156 -625 -4 -25 -9 -63 -12 -85 -3 -22 -7 -51 -9 -65 -2 -14
-6 -61 -10 -105 -4 -44 -8 -100 -11 -125 -6 -73 -6 -407 0 -510 l7 -95 -24 25
c-33 35 -224 282 -281 363 l-48 67 35 148 c36 149 52 222 62 277 22 119 64
381 70 430 3 33 8 69 10 80 2 11 7 46 10 78 12 135 16 174 20 203 2 17 7 86
10 155 6 143 2 141 -59 -48 -74 -232 -127 -481 -151 -713 -3 -30 -8 -68 -10
-85 -9 -59 -18 -272 -17 -383 l1 -113 -28 38 c-106 149 -270 421 -266 441 2 9
13 57 24 105 22 91 65 319 75 395 3 23 9 61 12 85 3 23 7 53 9 67 4 28 23 207
30 285 11 129 20 470 15 590 l-1 40 -20 -45 c-60 -134 -134 -459 -164 -720
-19 -168 -26 -593 -12 -719 l6 -54 -36 59 c-19 32 -69 123 -110 202 l-75 144
9 116 c9 110 9 653 0 697 -3 11 -8 65 -12 120 -3 55 -8 114 -11 130 -2 17 -11
89 -19 160 -9 72 -18 141 -20 155 -2 14 -12 72 -21 130 -14 95 -23 129 -25
104z"/>
</g>
</svg>
